<svg width="429.97801513671874px" height="120.8px" xmlns="http://www.w3.org/2000/svg" viewBox="35.01099243164063 14.600000000000001 429.97801513671874 120.8" style="background: rgba(0, 0, 0, 0);" preserveAspectRatio="xMidYMid"><defs><filter id="editing-extrusion" x="-100%" y="-100%" width="300%" height="300%"><feFlood result="color1" flood-color="#444"></feFlood><feConvolveMatrix order="8,8" divisor="1" kernelMatrix="1 0 0 0 0 0 0 0 0 1 0 0 0 0 0 0 0 0 1 0 0 0 0 0 0 0 0 1 0 0 0 0 0 0 0 0 1 0 0 0 0 0 0 0 0 1 0 0 0 0 0 0 0 0 1 0 0 0 0 0 0 0 0 1" in="SourceAlpha" result="extrude"></feConvolveMatrix><feComposite in="color1" in2="extrude" result="comp-extrude" operator="in"></feComposite><feOffset dx="4" dy="4" in="comp-extrude" result="offset-extrude"></feOffset><feMerge><feMergeNode in="offset-extrude"></feMergeNode><feMergeNode in="SourceGraphic"></feMergeNode></feMerge></filter></defs><g filter="url(#editing-extrusion)"><g transform="translate(100.47529023885727, 97.43000030517578)"><path d="M27.84-9.86L27.84-9.86L27.84-9.86Q29.06-8.32 29.06-5.34L29.06-5.34L29.06-5.34Q29.06-2.37 26.78-0.54L26.78-0.54L26.78-0.54Q24.51 1.28 20.54 1.28L20.54 1.28L20.54 1.28Q18.24 1.28 14.66 0.77L14.66 0.77L14.66 0.77Q7.62-0.32 5.60-0.32L5.60-0.32L5.60-0.32Q3.58-0.32 2.75-0.22L2.75-0.22L2.75-0.22Q1.92-0.13 0.58 0L0.58 0L8.32-42.24L22.34-42.24L15.94-7.04L15.94-7.04Q16.77-6.91 17.54-6.91L17.54-6.91L19.14-6.91L19.14-6.91Q24.51-6.91 27.84-9.86ZM58.30-29.57L58.30-29.57L58.30-29.57Q59.26-31.49 59.26-33.28L59.26-33.28L59.26-33.28Q59.26-35.07 59.07-36.06L59.07-36.06L59.07-36.06Q58.88-37.06 58.43-37.82L58.43-37.82L58.43-37.82Q57.47-39.49 55.55-39.49L55.55-39.49L55.55-39.49Q53.18-39.49 51.26-37.76L51.26-37.76L51.26-37.76Q49.22-35.97 49.22-33.15L49.22-33.15L49.22-33.15Q49.22-31.36 50.46-29.98L50.46-29.98L50.46-29.98Q51.71-28.61 53.63-27.33L53.63-27.33L53.63-27.33Q55.55-26.05 57.73-24.77L57.73-24.77L57.73-24.77Q59.90-23.49 61.82-21.95L61.82-21.95L61.82-21.95Q66.24-18.43 66.24-13.70L66.24-13.70L66.24-13.70Q66.24-10.50 64.54-7.78L64.54-7.78L64.54-7.78Q62.85-5.06 60.03-3.07L60.03-3.07L60.03-3.07Q53.89 1.28 45.76 1.28L45.76 1.28L45.76 1.28Q39.17 1.28 35.78-0.86L35.78-0.86L35.78-0.86Q32.38-3.01 32.38-6.27L32.38-6.27L32.38-6.27Q32.38-12.10 36.93-13.57L36.93-13.57L36.93-13.57Q38.21-14.02 40.16-14.02L40.16-14.02L40.16-14.02Q42.11-14.02 44.35-13.18L44.35-13.18L44.35-13.18Q43.33-10.56 43.33-8.19L43.33-8.19L43.33-8.19Q43.33-3.07 46.98-3.07L46.98-3.07L46.98-3.07Q49.34-3.07 51.30-4.80L51.30-4.80L51.30-4.80Q53.25-6.53 53.25-8.48L53.25-8.48L53.25-8.48Q53.25-10.43 52-11.84L52-11.84L52-11.84Q50.75-13.25 48.90-14.37L48.90-14.37L48.90-14.37Q47.04-15.49 44.90-16.58L44.90-16.58L44.90-16.58Q42.75-17.66 40.90-19.20L40.90-19.20L40.90-19.20Q36.54-22.72 36.54-28.35L36.54-28.35L36.54-28.35Q36.54-32 38.34-34.85L38.34-34.85L38.34-34.85Q40.13-37.70 43.01-39.62L43.01-39.62L43.01-39.62Q48.77-43.52 55.84-43.52L55.84-43.52L55.84-43.52Q62.91-43.52 66.34-41.41L66.34-41.41L66.34-41.41Q69.76-39.30 69.76-35.71L69.76-35.71L69.76-35.71Q69.76-32.58 67.33-30.59L67.33-30.59L67.33-30.59Q65.22-28.93 62.66-28.93L62.66-28.93L62.66-28.93Q60.10-28.93 58.30-29.57ZM96.13-42.69L96.13-42.69L96.13-42.69Q111.81-42.69 111.81-31.62L111.81-31.62L111.81-31.62Q111.81-25.54 107.90-21.89L107.90-21.89L107.90-21.89Q104.06-18.24 97.34-18.24L97.34-18.24L97.34-18.24Q94.21-18.24 91.78-20.03L91.78-20.03L91.78-20.03Q90.62-20.80 89.86-21.82L89.86-21.82L89.86-21.82Q94.53-21.82 96.99-24.67L96.99-24.67L96.99-24.67Q99.46-27.52 99.46-33.09L99.46-33.09L99.46-33.09Q99.46-38.66 93.95-38.66L93.95-38.66L92.42-38.66L92.42-38.66Q92.03-38.66 91.71-38.59L91.71-38.59L84.35 0L70.46 0L78.34-41.92L78.34-41.92Q85.18-42.56 89.15-42.62L89.15-42.62L89.15-42.62Q93.12-42.69 96.13-42.69ZM113.34-9.47L113.34-9.47L113.34-9.47Q113.34-11.97 113.98-15.17L113.98-15.17L119.17-42.24L133.31-42.24L128.19-14.98L128.19-14.98Q127.62-11.97 127.62-9.76L127.62-9.76L127.62-9.76Q127.62-7.55 128.54-6.40L128.54-6.40L128.54-6.40Q129.47-5.25 131.20-5.25L131.20-5.25L131.20-5.25Q132.93-5.25 134.02-5.70L134.02-5.70L134.02-5.70Q135.10-6.14 136-7.23L136-7.23L136-7.23Q137.73-9.41 138.82-14.98L138.82-14.98L144-42.24L153.66-42.24L148.54-15.04L148.54-15.04Q146.75-5.95 141.82-2.30L141.82-2.30L141.82-2.30Q137.02 1.28 127.55 1.28L127.55 1.28L127.55 1.28Q120.45 1.28 116.67-1.79L116.67-1.79L116.67-1.79Q113.34-4.48 113.34-9.47ZM157.31-10.37L157.31-10.37L157.31-10.37Q155.26-11.84 155.26-14.66L155.26-14.66L155.26-14.66Q155.26-16.19 156.03-17.44L156.03-17.44L156.03-17.44Q156.80-18.69 158.34-18.88L158.34-18.88L170.94-18.88L170.94-18.88Q173.06-18.88 173.70-20.16L173.70-20.16L173.70-20.16Q174.72-19.58 175.17-18.37L175.17-18.37L175.17-18.37Q175.62-17.15 175.62-15.87L175.62-15.87L175.62-15.87Q175.62-14.59 174.62-13.34L174.62-13.34L174.62-13.34Q173.63-12.10 172.16-11.97L172.16-11.97L160.45-11.97L160.45-11.97Q159.10-11.97 158.46-11.55L158.46-11.55L158.46-11.55Q157.82-11.14 157.31-10.37ZM213.44-13.25L213.44-13.25L213.44-13.25Q215.10-12.03 215.10-9.44L215.10-9.44L215.10-9.44Q215.10-6.85 213.98-5.02L213.98-5.02L213.98-5.02Q212.86-3.20 210.69-1.79L210.69-1.79L210.69-1.79Q206.02 1.22 197.86 1.22L197.86 1.22L197.86 1.22Q189.70 1.22 185.25-3.04L185.25-3.04L185.25-3.04Q180.80-7.30 180.80-14.85L180.80-14.85L180.80-14.85Q180.80-25.54 186.37-33.66L186.37-33.66L186.37-33.66Q190.59-39.68 198.14-42.24L198.14-42.24L198.14-42.24Q202.05-43.52 205.89-43.52L205.89-43.52L205.89-43.52Q209.73-43.52 212.10-43.01L212.10-43.01L212.10-43.01Q214.46-42.50 216.26-41.47L216.26-41.47L216.26-41.47Q220.16-39.23 220.16-35.65L220.16-35.65L220.16-35.65Q220.16-32.38 217.09-29.95L217.09-29.95L217.09-29.95Q214.27-27.78 211.97-27.78L211.97-27.78L211.97-27.78Q209.66-27.78 208.70-28.10L208.70-28.10L208.70-28.10Q208.96-30.40 208.96-31.90L208.96-31.90L208.96-31.90Q208.96-33.41 208.90-34.50L208.90-34.50L208.90-34.50Q208.83-35.58 208.51-36.61L208.51-36.61L208.51-36.61Q207.87-38.98 205.92-38.98L205.92-38.98L205.92-38.98Q203.97-38.98 202.02-37.15L202.02-37.15L202.02-37.15Q200.06-35.33 198.40-32.26L198.40-32.26L198.40-32.26Q194.62-25.28 194.62-17.02L194.62-17.02L194.62-17.02Q194.62-13.06 196.86-10.78L196.86-10.78L196.86-10.78Q199.10-8.51 203.90-8.51L203.90-8.51L203.90-8.51Q207.49-8.51 210.88-10.88L210.88-10.88L210.88-10.88Q212.35-11.90 213.44-13.25ZM221.38-15.62L221.38-15.62L221.38-15.62Q221.38-27.71 227.65-35.33L227.65-35.33L227.65-35.33Q234.30-43.58 245.89-43.58L245.89-43.58L245.89-43.58Q254.27-43.58 258.50-39.52L258.50-39.52L258.50-39.52Q262.72-35.46 262.72-26.88L262.72-26.88L262.72-26.88Q262.72-13.82 256.06-6.21L256.06-6.21L256.06-6.21Q249.47 1.28 238.40 1.28L238.40 1.28L238.40 1.28Q229.76 1.28 225.57-3.04L225.57-3.04L225.57-3.04Q221.38-7.36 221.38-15.62ZM238.21-28.86L238.21-28.86L238.21-28.86Q235.33-17.34 235.33-8.26L235.33-8.26L235.33-8.26Q235.33-6.08 236.06-4.67L236.06-4.67L236.06-4.67Q236.80-3.26 238.75-3.26L238.75-3.26L238.75-3.26Q240.70-3.26 241.92-4.19L241.92-4.19L241.92-4.19Q243.14-5.12 244.10-7.23L244.10-7.23L244.10-7.23Q245.63-10.69 247.07-18.02L247.07-18.02L247.07-18.02Q248.51-25.34 248.64-28.38L248.64-28.38L248.64-28.38Q248.77-31.42 248.77-33.73L248.77-33.73L248.77-33.73Q248.77-36.03 248.06-37.50L248.06-37.50L248.06-37.50Q247.36-38.98 245.47-38.98L245.47-38.98L245.47-38.98Q243.58-38.98 242.30-37.82L242.30-37.82L242.30-37.82Q239.94-35.65 238.21-28.86ZM293.18-9.86L293.18-9.86L293.18-9.86Q294.40-8.32 294.40-5.82L294.40-5.82L294.40-5.82Q294.40-2.37 291.84-0.54L291.84-0.54L291.84-0.54Q289.28 1.28 285.25 1.28L285.25 1.28L285.25 1.28Q282.94 1.28 279.42 0.77L279.42 0.77L279.42 0.77Q272.51-0.32 270.40-0.32L270.40-0.32L270.40-0.32Q268.29-0.32 267.46-0.22L267.46-0.22L267.46-0.22Q266.62-0.13 265.28 0L265.28 0L273.15-42.24L300.74-42.24L300.74-42.24Q300.74-38.34 298.85-36.29L298.85-36.29L298.85-36.29Q296.96-34.24 293.25-34.24L293.25-34.24L293.25-34.24Q289.54-34.24 285.76-35.97L285.76-35.97L283.78-24.77L295.17-24.77L295.17-24.77Q295.17-21.38 293.50-19.49L293.50-19.49L293.50-19.49Q291.84-17.60 289.06-17.60L289.06-17.60L289.06-17.60Q286.27-17.60 284.54-18.24L284.54-18.24L284.54-18.24Q282.82-18.88 282.62-19.07L282.62-19.07L280.32-6.98L280.32-6.98Q281.86-6.78 284.74-6.78L284.74-6.78L284.74-6.78Q289.66-6.78 293.18-9.86Z" fill="#ccc"></path></g></g><style>text {
  font-size: 64px;
  font-family: Arial Black;
  dominant-baseline: central;
  text-anchor: middle;
}</style></svg>