<svg width="354.05px" height="120.8px" xmlns="http://www.w3.org/2000/svg" viewBox="72.975 14.600000000000001 354.05 120.8" style="background: rgba(0, 0, 0, 0);" preserveAspectRatio="xMidYMid"><defs><linearGradient id="editing-gradient-gradient" x1="0" x2="1" y1="0.5" y2="0.5" gradientUnits="objectBoundingBox"><stop offset="0" stop-color="#f0f"></stop><stop offset="1" stop-color="#0ff"></stop></linearGradient></defs><g><g transform="translate(128.7791348695755, 98.80999946594238)"><path d="M6.53 0L-0.83 0L10.75-42.24L24.13-42.24L27.07-18.11L38.98-42.24L50.18-42.24L51.33-10.62L51.33-10.62Q51.58-4.35 54.66-2.43L54.66-2.43L54.66-2.43Q53.95-1.15 51.90 0.06L51.90 0.06L51.90 0.06Q49.86 1.28 47.14 1.28L47.14 1.28L47.14 1.28Q44.42 1.28 42.82 0.51L42.82 0.51L42.82 0.51Q41.22-0.26 40.32-1.54L40.32-1.54L40.32-1.54Q38.72-3.84 38.72-8.26L38.72-8.26L38.72-28.03L26.11 0L18.18 0L13.70-28.74L6.53 0ZM83.33-10.82L83.33-10.82L83.33-10.82Q84.93-9.73 84.93-7.33L84.93-7.33L84.93-7.33Q84.93-4.93 83.71-3.39L83.71-3.39L83.71-3.39Q82.50-1.86 80.51-0.83L80.51-0.83L80.51-0.83Q76.42 1.28 72 1.28L72 1.28L72 1.28Q67.58 1.28 64.99 0.32L64.99 0.32L64.99 0.32Q62.40-0.64 60.67-2.43L60.67-2.43L60.67-2.43Q57.28-5.82 57.28-12.03L57.28-12.03L57.28-12.03Q57.28-21.70 62.53-27.58L62.53-27.58L62.53-27.58Q68.16-33.92 77.95-33.92L77.95-33.92L77.95-33.92Q84.03-33.92 87.04-31.36L87.04-31.36L87.04-31.36Q89.28-29.44 89.28-26.30L89.28-26.30L89.28-26.30Q89.28-15.04 69.82-15.04L69.82-15.04L69.82-15.04Q69.57-13.38 69.57-11.97L69.57-11.97L69.57-11.97Q69.57-9.02 70.88-7.90L70.88-7.90L70.88-7.90Q72.19-6.78 74.62-6.78L74.62-6.78L74.62-6.78Q77.06-6.78 79.65-7.90L79.65-7.90L79.65-7.90Q82.24-9.02 83.33-10.82ZM70.27-17.79L70.27-17.79L70.27-17.79Q74.82-17.79 77.44-20.61L77.44-20.61L77.44-20.61Q80.06-23.30 80.06-27.58L80.06-27.58L80.06-27.58Q80.06-29.06 79.52-29.86L79.52-29.86L79.52-29.86Q78.98-30.66 77.89-30.66L77.89-30.66L77.89-30.66Q76.80-30.66 75.87-30.24L75.87-30.24L75.87-30.24Q74.94-29.82 73.98-28.42L73.98-28.42L73.98-28.42Q71.62-25.22 70.27-17.79ZM111.49-17.98L111.49-17.98L111.49-17.98Q113.79-22.08 113.79-26.24L113.79-26.24L113.79-26.24Q113.79-28.99 111.81-28.99L111.81-28.99L111.81-28.99Q110.27-28.99 108.67-26.37L108.67-26.37L108.67-26.37Q107.01-23.74 106.50-20.35L106.50-20.35L103.17 0L89.92 1.28L96.45-32.64L107.01-33.92L105.86-27.46L105.86-27.46Q108.99-33.92 116.03-33.92L116.03-33.92L116.03-33.92Q119.74-33.92 121.76-32L121.76-32L121.76-32Q123.78-30.08 123.78-26.14L123.78-26.14L123.78-26.14Q123.78-22.21 121.18-19.71L121.18-19.71L121.18-19.71Q118.59-17.22 114.18-17.22L114.18-17.22L114.18-17.22Q112.26-17.22 111.49-17.98ZM127.58-1.92L127.58-1.92L127.58-1.92Q126.08-3.58 125.41-6.21L125.41-6.21L125.41-6.21Q124.74-8.83 124.74-13.12L124.74-13.12L124.74-13.12Q124.74-17.41 126.21-21.31L126.21-21.31L126.21-21.31Q127.68-25.22 130.37-28.03L130.37-28.03L130.37-28.03Q135.87-33.92 144.96-33.92L144.96-33.92L144.96-33.92Q148.22-33.92 150.59-32.83L150.59-32.83L161.54-33.92L156.80-8.96L156.80-8.96Q156.61-8.19 156.61-6.78L156.61-6.78L156.61-6.78Q156.61-5.38 157.47-4.48L157.47-4.48L157.47-4.48Q158.34-3.58 159.62-3.46L159.62-3.46L159.62-3.46Q158.98-1.28 156.64 0L156.64 0L156.64 0Q154.30 1.28 151.68 1.28L151.68 1.28L151.68 1.28Q149.06 1.28 147.30 0.29L147.30 0.29L147.30 0.29Q145.54-0.70 145.02-2.37L145.02-2.37L145.02-2.37Q144-0.77 141.82 0.26L141.82 0.26L141.82 0.26Q139.65 1.28 136.74 1.28L136.74 1.28L136.74 1.28Q133.82 1.28 131.46 0.51L131.46 0.51L131.46 0.51Q129.09-0.26 127.58-1.92ZM141.09-27.90L141.09-27.90L141.09-27.90Q140.35-26.75 139.71-24.80L139.71-24.80L139.71-24.80Q139.07-22.85 138.02-17.63L138.02-17.63L138.02-17.63Q136.96-12.42 136.96-8.70L136.96-8.70L136.96-8.70Q136.96-4.99 137.54-3.90L137.54-3.90L137.54-3.90Q138.11-2.82 139.14-2.82L139.14-2.82L139.14-2.82Q141.18-2.82 142.69-4.77L142.69-4.77L142.69-4.77Q144.19-6.72 144.77-10.18L144.77-10.18L148.16-28.93L148.16-28.93Q146.82-30.08 145.25-30.08L145.25-30.08L145.25-30.08Q143.68-30.08 142.75-29.57L142.75-29.57L142.75-29.57Q141.82-29.06 141.09-27.90ZM180.16-39.49L180.16-39.49L180.16-39.49Q177.47-39.49 175.87-38.40L175.87-38.40L175.87-38.40Q174.59-40.26 174.59-42.18L174.59-42.18L174.59-42.18Q174.59-44.10 176.22-45.22L176.22-45.22L176.22-45.22Q177.86-46.34 180.93-46.34L180.93-46.34L180.93-46.34Q183.23-46.34 186.56-45.95L186.56-45.95L186.56-45.95Q192.58-45.25 194.85-45.25L194.85-45.25L194.85-45.25Q197.12-45.25 198.21-46.34L198.21-46.34L198.21-46.34Q199.42-44.93 199.42-42.85L199.42-42.85L199.42-42.85Q199.42-40.77 197.79-39.55L197.79-39.55L197.79-39.55Q196.16-38.34 193.28-38.34L193.28-38.34L193.28-38.34Q192.13-38.34 190.27-38.53L190.27-38.53L186.50-38.91L186.50-38.91Q184.58-39.10 182.85-39.30L182.85-39.30L182.85-39.30Q181.12-39.49 180.16-39.49ZM192.06 1.28L192.06 1.28L192.06 1.28Q184.32 1.28 184.32-4.74L184.32-4.74L184.32-4.74Q184.38-6.40 184.90-9.22L184.90-9.22L186.05-15.10L186.05-15.10Q187.78-23.42 187.78-25.28L187.78-25.28L187.78-25.28Q187.78-28.99 185.60-28.99L185.60-28.99L185.60-28.99Q181.95-28.99 180.03-19.46L180.03-19.46L176.26 0L163.39 1.28L170.05-32.70L180.54-33.92L179.52-27.65L179.52-27.65Q182.53-33.92 191.74-33.92L191.74-33.92L191.74-33.92Q196.22-33.92 198.11-32.03L198.11-32.03L198.11-32.03Q200-30.14 200-25.92L200-25.92L200-25.92Q200-21.95 197.95-12.67L197.95-12.67L197.95-12.67Q196.99-8.51 196.99-6.94L196.99-6.94L196.99-6.94Q196.99-5.38 197.86-4.48L197.86-4.48L197.86-4.48Q198.72-3.58 200-3.46L200-3.46L200-3.46Q199.36-1.28 197.15 0L197.15 0L197.15 0Q194.94 1.28 192.06 1.28ZM207.90-1.92L207.90-1.92L207.90-1.92Q206.40-3.58 205.73-6.21L205.73-6.21L205.73-6.21Q205.06-8.83 205.06-13.12L205.06-13.12L205.06-13.12Q205.06-17.41 206.53-21.31L206.53-21.31L206.53-21.31Q208.00-25.22 210.69-28.03L210.69-28.03L210.69-28.03Q216.19-33.92 225.28-33.92L225.28-33.92L225.28-33.92Q228.54-33.92 230.91-32.83L230.91-32.83L241.86-33.92L237.12-8.96L237.12-8.96Q236.93-8.19 236.93-6.78L236.93-6.78L236.93-6.78Q236.93-5.38 237.79-4.48L237.79-4.48L237.79-4.48Q238.66-3.58 239.94-3.46L239.94-3.46L239.94-3.46Q239.30-1.28 236.96 0L236.96 0L236.96 0Q234.62 1.28 232.00 1.28L232.00 1.28L232.00 1.28Q229.38 1.28 227.62 0.29L227.62 0.29L227.62 0.29Q225.86-0.70 225.34-2.37L225.34-2.37L225.34-2.37Q224.32-0.77 222.14 0.26L222.14 0.26L222.14 0.26Q219.97 1.28 217.06 1.28L217.06 1.28L217.06 1.28Q214.14 1.28 211.78 0.51L211.78 0.51L211.78 0.51Q209.41-0.26 207.90-1.92ZM221.41-27.90L221.41-27.90L221.41-27.90Q220.67-26.75 220.03-24.80L220.03-24.80L220.03-24.80Q219.39-22.85 218.34-17.63L218.34-17.63L218.34-17.63Q217.28-12.42 217.28-8.70L217.28-8.70L217.28-8.70Q217.28-4.99 217.86-3.90L217.86-3.90L217.86-3.90Q218.43-2.82 219.46-2.82L219.46-2.82L219.46-2.82Q221.50-2.82 223.01-4.77L223.01-4.77L223.01-4.77Q224.51-6.72 225.09-10.18L225.09-10.18L228.48-28.93L228.48-28.93Q227.14-30.08 225.57-30.08L225.57-30.08L225.57-30.08Q224.00-30.08 223.07-29.57L223.07-29.57L223.07-29.57Q222.14-29.06 221.41-27.90Z" fill="url(#editing-gradient-gradient)"></path></g></g><style>text {
  font-size: 64px;
  font-family: Arial Black;
  dominant-baseline: central;
  text-anchor: middle;
}</style></svg>