<svg width="579.3646484375px" height="120.8px" xmlns="http://www.w3.org/2000/svg" viewBox="-39.68232421875001 14.600000000000001 579.3646484375 120.8" style="background: rgba(0, 0, 0, 0);" preserveAspectRatio="xMidYMid"><defs><linearGradient id="editing-gradient-gradient" x1="0" x2="1" y1="0.5" y2="0.5" gradientUnits="objectBoundingBox"><stop offset="0" stop-color="#f0f"></stop><stop offset="1" stop-color="#0ff"></stop></linearGradient></defs><g><g transform="translate(44.652401715517044, 98.68000030517578)"><path d="M26.11-42.69L26.11-42.69L26.11-42.69Q41.79-42.69 41.79-31.62L41.79-31.62L41.79-31.62Q41.79-25.54 37.89-21.89L37.89-21.89L37.89-21.89Q34.05-18.24 27.33-18.24L27.33-18.24L27.33-18.24Q24.19-18.24 21.76-20.03L21.76-20.03L21.76-20.03Q20.61-20.80 19.84-21.82L19.84-21.82L19.84-21.82Q24.51-21.82 26.98-24.67L26.98-24.67L26.98-24.67Q29.44-27.52 29.44-33.09L29.44-33.09L29.44-33.09Q29.44-38.66 23.94-38.66L23.94-38.66L22.40-38.66L22.40-38.66Q22.02-38.66 21.70-38.59L21.70-38.59L14.34 0L0.45 0L8.32-41.92L8.32-41.92Q15.17-42.56 19.14-42.62L19.14-42.62L19.14-42.62Q23.10-42.69 26.11-42.69ZM57.41-3.52L57.41-3.52L57.41-3.52Q55.42 1.28 49.09 1.28L49.09 1.28L49.09 1.28Q45.89 1.28 43.84-0.96L43.84-0.96L43.84-0.96Q42.18-2.82 42.18-4.93L42.18-4.93L42.18-4.93Q42.18-9.73 44.42-20.22L44.42-20.22L49.09-44.80L62.08-46.08L55.87-13.70L55.87-13.70Q54.78-8.96 54.78-7.30L54.78-7.30L54.78-7.30Q54.78-3.65 57.41-3.52ZM65.63-1.92L65.63-1.92L65.63-1.92Q64.13-3.58 63.46-6.21L63.46-6.21L63.46-6.21Q62.78-8.83 62.78-13.12L62.78-13.12L62.78-13.12Q62.78-17.41 64.26-21.31L64.26-21.31L64.26-21.31Q65.73-25.22 68.42-28.03L68.42-28.03L68.42-28.03Q73.92-33.92 83.01-33.92L83.01-33.92L83.01-33.92Q86.27-33.92 88.64-32.83L88.64-32.83L99.58-33.92L94.85-8.96L94.85-8.96Q94.66-8.19 94.66-6.78L94.66-6.78L94.66-6.78Q94.66-5.38 95.52-4.48L95.52-4.48L95.52-4.48Q96.38-3.58 97.66-3.46L97.66-3.46L97.66-3.46Q97.02-1.28 94.69 0L94.69 0L94.69 0Q92.35 1.28 89.73 1.28L89.73 1.28L89.73 1.28Q87.10 1.28 85.34 0.29L85.34 0.29L85.34 0.29Q83.58-0.70 83.07-2.37L83.07-2.37L83.07-2.37Q82.05-0.77 79.87 0.26L79.87 0.26L79.87 0.26Q77.70 1.28 74.78 1.28L74.78 1.28L74.78 1.28Q71.87 1.28 69.50 0.51L69.50 0.51L69.50 0.51Q67.14-0.26 65.63-1.92ZM79.14-27.90L79.14-27.90L79.14-27.90Q78.40-26.75 77.76-24.80L77.76-24.80L77.76-24.80Q77.12-22.85 76.06-17.63L76.06-17.63L76.06-17.63Q75.01-12.42 75.01-8.70L75.01-8.70L75.01-8.70Q75.01-4.99 75.58-3.90L75.58-3.90L75.58-3.90Q76.16-2.82 77.18-2.82L77.18-2.82L77.18-2.82Q79.23-2.82 80.74-4.77L80.74-4.77L80.74-4.77Q82.24-6.72 82.82-10.18L82.82-10.18L86.21-28.93L86.21-28.93Q84.86-30.08 83.30-30.08L83.30-30.08L83.30-30.08Q81.73-30.08 80.80-29.57L80.80-29.57L80.80-29.57Q79.87-29.06 79.14-27.90ZM130.11 1.28L130.11 1.28L130.11 1.28Q122.37 1.28 122.37-4.74L122.37-4.74L122.37-4.74Q122.43-6.40 122.94-9.22L122.94-9.22L124.10-15.10L124.10-15.10Q125.82-23.42 125.82-25.28L125.82-25.28L125.82-25.28Q125.82-28.99 123.65-28.99L123.65-28.99L123.65-28.99Q120-28.99 118.08-19.46L118.08-19.46L114.30 0L101.44 1.28L108.10-32.70L118.59-33.92L117.57-27.65L117.57-27.65Q120.58-33.92 129.79-33.92L129.79-33.92L129.79-33.92Q134.27-33.92 136.16-32.03L136.16-32.03L136.16-32.03Q138.05-30.14 138.05-25.92L138.05-25.92L138.05-25.92Q138.05-21.95 136-12.67L136-12.67L136-12.67Q135.04-8.51 135.04-6.94L135.04-6.94L135.04-6.94Q135.04-5.38 135.90-4.48L135.90-4.48L135.90-4.48Q136.77-3.58 138.05-3.46L138.05-3.46L138.05-3.46Q137.41-1.28 135.20 0L135.20 0L135.20 0Q132.99 1.28 130.11 1.28ZM144.19-6.40L144.19-6.40L144.19-6.40Q144.19-8.13 145.09-12.48L145.09-12.48L148.48-29.76L144.70-29.76L144.96-31.68L144.96-31.68Q152.64-33.98 160.06-39.62L160.06-39.62L163.14-39.62L161.60-32.64L166.59-32.64L166.02-29.76L161.09-29.76L157.82-12.48L157.82-12.48Q156.99-8.51 156.99-7.17L156.99-7.17L156.99-7.17Q156.99-4.10 159.68-3.46L159.68-3.46L159.68-3.46Q159.04-1.28 156.74 0L156.74 0L156.74 0Q154.43 1.28 151.17 1.28L151.17 1.28L151.17 1.28Q147.90 1.28 146.05-0.77L146.05-0.77L146.05-0.77Q144.19-2.82 144.19-6.40ZM191.30-42.69L191.30-42.69L191.30-42.69Q206.98-42.69 206.98-31.62L206.98-31.62L206.98-31.62Q206.98-25.54 203.07-21.89L203.07-21.89L203.07-21.89Q199.23-18.24 192.51-18.24L192.51-18.24L192.51-18.24Q189.38-18.24 186.94-20.03L186.94-20.03L186.94-20.03Q185.79-20.80 185.02-21.82L185.02-21.82L185.02-21.82Q189.70-21.82 192.16-24.67L192.16-24.67L192.16-24.67Q194.62-27.52 194.62-33.09L194.62-33.09L194.62-33.09Q194.62-38.66 189.12-38.66L189.12-38.66L187.58-38.66L187.58-38.66Q187.20-38.66 186.88-38.59L186.88-38.59L179.52 0L165.63 0L173.50-41.92L173.50-41.92Q180.35-42.56 184.32-42.62L184.32-42.62L184.32-42.62Q188.29-42.69 191.30-42.69ZM227.84-2.69L227.84-2.69L227.84-2.69Q224.77 1.28 217.15 1.28L217.15 1.28L217.15 1.28Q213.18 1.28 210.30-1.12L210.30-1.12L210.30-1.12Q207.42-3.52 207.42-6.98L207.42-6.98L207.42-6.98Q207.42-8.90 207.62-9.86L207.62-9.86L211.90-32.64L224.90-33.92L220.22-9.22L220.22-9.22Q219.97-7.81 219.97-6.98L219.97-6.98L219.97-6.98Q219.97-3.26 222.21-3.26L222.21-3.26L222.21-3.26Q224.70-3.26 226.50-6.66L226.50-6.66L226.50-6.66Q227.07-7.74 227.33-9.15L227.33-9.15L231.87-32.64L244.48-33.92L239.74-8.96L239.74-8.96Q239.55-8 239.55-6.98L239.55-6.98L239.55-6.98Q239.55-5.95 240.13-4.83L240.13-4.83L240.13-4.83Q240.70-3.71 242.56-3.46L242.56-3.46L242.56-3.46Q242.18-1.92 240.83-0.90L240.83-0.90L240.83-0.90Q238.02 1.28 234.98 1.28L234.98 1.28L234.98 1.28Q231.94 1.28 230.14 0.19L230.14 0.19L230.14 0.19Q228.35-0.90 227.84-2.69ZM263.23-3.52L263.23-3.52L263.23-3.52Q261.25 1.28 254.91 1.28L254.91 1.28L254.91 1.28Q251.71 1.28 249.66-0.96L249.66-0.96L249.66-0.96Q248.00-2.82 248.00-4.93L248.00-4.93L248.00-4.93Q248.00-9.73 250.24-20.22L250.24-20.22L254.91-44.80L267.90-46.08L261.70-13.70L261.70-13.70Q260.61-8.96 260.61-7.30L260.61-7.30L260.61-7.30Q260.61-3.65 263.23-3.52ZM287.81-22.46L287.81-22.46L287.81-22.46Q288.70-24.83 288.70-26.88L288.70-26.88L288.70-26.88Q288.70-30.66 285.63-30.66L285.63-30.66L285.63-30.66Q284.03-30.66 282.72-29.22L282.72-29.22L282.72-29.22Q281.41-27.78 281.41-25.98L281.41-25.98L281.41-25.98Q281.41-24.70 282.43-23.68L282.43-23.68L282.43-23.68Q283.90-22.27 287.68-19.97L287.68-19.97L287.68-19.97Q291.46-17.66 292.90-15.78L292.90-15.78L292.90-15.78Q294.34-13.89 294.34-11.30L294.34-11.30L294.34-11.30Q294.34-8.70 293.09-6.34L293.09-6.34L293.09-6.34Q291.84-3.97 289.60-2.30L289.60-2.30L289.60-2.30Q284.80 1.28 277.12 1.28L277.12 1.28L277.12 1.28Q272.96 1.28 269.76-0.90L269.76-0.90L269.76-0.90Q266.56-3.01 266.56-5.50L266.56-5.50L266.56-5.50Q266.56-8 268.38-9.47L268.38-9.47L268.38-9.47Q270.21-10.94 272.90-10.94L272.90-10.94L272.90-10.94Q275.58-10.94 277.25-9.92L277.25-9.92L277.25-9.92Q276.42-7.81 276.42-6.40L276.42-6.40L276.42-6.40Q276.42-2.18 280.00-2.18L280.00-2.18L280.00-2.18Q281.54-2.18 282.56-3.14L282.56-3.14L282.56-3.14Q283.58-4.10 283.58-5.76L283.58-5.76L283.58-5.76Q283.58-9.02 278.08-12.48L278.08-12.48L278.08-12.48Q273.60-15.42 272.58-16.58L272.58-16.58L272.58-16.58Q270.85-18.62 270.85-21.18L270.85-21.18L270.85-21.18Q270.85-23.74 272.06-26.18L272.06-26.18L272.06-26.18Q273.28-28.61 275.52-30.34L275.52-30.34L275.52-30.34Q280.19-33.92 288.32-33.92L288.32-33.92L288.32-33.92Q292.48-33.92 294.94-32.26L294.94-32.26L294.94-32.26Q297.41-30.59 297.41-27.78L297.41-27.78L297.41-27.78Q297.41-24.96 295.71-23.36L295.71-23.36L295.71-23.36Q294.02-21.76 290.94-21.76L290.94-21.76L290.94-21.76Q288.83-21.76 287.81-22.46ZM325.70-10.82L325.70-10.82L325.70-10.82Q327.30-9.73 327.30-7.33L327.30-7.33L327.30-7.33Q327.30-4.93 326.08-3.39L326.08-3.39L326.08-3.39Q324.86-1.86 322.88-0.83L322.88-0.83L322.88-0.83Q318.78 1.28 314.37 1.28L314.37 1.28L314.37 1.28Q309.95 1.28 307.36 0.32L307.36 0.32L307.36 0.32Q304.77-0.64 303.04-2.43L303.04-2.43L303.04-2.43Q299.65-5.82 299.65-12.03L299.65-12.03L299.65-12.03Q299.65-21.70 304.90-27.58L304.90-27.58L304.90-27.58Q310.53-33.92 320.32-33.92L320.32-33.92L320.32-33.92Q326.40-33.92 329.41-31.36L329.41-31.36L329.41-31.36Q331.65-29.44 331.65-26.30L331.65-26.30L331.65-26.30Q331.65-15.04 312.19-15.04L312.19-15.04L312.19-15.04Q311.94-13.38 311.94-11.97L311.94-11.97L311.94-11.97Q311.94-9.02 313.25-7.90L313.25-7.90L313.25-7.90Q314.56-6.78 316.99-6.78L316.99-6.78L316.99-6.78Q319.42-6.78 322.02-7.90L322.02-7.90L322.02-7.90Q324.61-9.02 325.70-10.82ZM312.64-17.79L312.64-17.79L312.64-17.79Q317.18-17.79 319.81-20.61L319.81-20.61L319.81-20.61Q322.43-23.30 322.43-27.58L322.43-27.58L322.43-27.58Q322.43-29.06 321.89-29.86L321.89-29.86L321.89-29.86Q321.34-30.66 320.26-30.66L320.26-30.66L320.26-30.66Q319.17-30.66 318.24-30.24L318.24-30.24L318.24-30.24Q317.31-29.82 316.35-28.42L316.35-28.42L316.35-28.42Q313.98-25.22 312.64-17.79ZM331.90-3.78L331.90-3.78L331.90-3.78Q331.90-6.21 333.79-7.55L333.79-7.55L333.79-7.55Q335.68-8.90 338.37-8.90L338.37-8.90L338.37-8.90Q341.06-8.90 342.69-7.55L342.69-7.55L342.69-7.55Q344.32-6.21 344.32-3.78L344.32-3.78L344.32-3.78Q344.32-1.34 342.50-0.03L342.50-0.03L342.50-0.03Q340.67 1.28 337.98 1.28L337.98 1.28L337.98 1.28Q335.30 1.28 333.60-0.03L333.60-0.03L333.60-0.03Q331.90-1.34 331.90-3.78ZM378.37 1.28L378.37 1.28L378.37 1.28Q370.18 1.28 369.41-10.37L369.41-10.37L358.40-10.37L358.40-10.37Q357.12-7.42 356.22-4.86L356.22-4.86L354.56 0L345.60 0L365.76-42.24L379.52-42.24L382.21-11.14L382.21-11.14Q382.85-4.42 385.41-2.43L385.41-2.43L385.41-2.43Q383.55 1.28 378.37 1.28ZM363.90-23.17L360.38-15.04L369.22-15.04L368.45-31.49L368.45-33.22L363.90-23.17ZM402.37 0L388.42 0L396.54-42.24L410.62-42.24L402.37 0Z" fill="url(#editing-gradient-gradient)"></path></g></g><style>text {
  font-size: 64px;
  font-family: Arial Black;
  dominant-baseline: central;
  text-anchor: middle;
}</style></svg>