<svg xmlns="http://www.w3.org/2000/svg" viewBox="0 0 512 512"><path fill="#ac04fc" d="M219.625 33.469c-4.501 1.605-10.058 6.646-11.478 10.412-.543 1.441-1.784 5.284-2.758 8.541-7.92 26.485-38.065 38.055-59.93 23.004-6.348-4.37-13.432-5.472-19.725-3.068-6.136 2.343-51.93 48.374-53.73 54.009-1.992 6.231-.846 12.347 3.736 19.944 14.275 23.668 1.597 54.192-24.833 59.787-9.581 2.029-15.754 7.087-17.847 14.625-1.402 5.049-1.402 65.505 0 70.554 2.13 7.669 7.247 11.831 18.301 14.883 27.109 7.485 38.6 36.399 23.947 60.254-4.394 7.153-5.345 13.582-2.941 19.877 2.335 6.113 48.383 51.911 54 53.705 6.026 1.926 12.489.826 19.219-3.272 23.24-14.15 52.145-3.649 59.493 21.613 1.146 3.94 2.549 8.396 3.119 9.902 1.462 3.866 7.965 9.435 12.481 10.689 5.266 1.462 65.525 1.421 70.818-.049 5.561-1.543 11.991-8.194 13.437-13.896 7.791-30.733 38.921-45.3 61.299-28.685 6.089 4.521 11.893 5.607 19.267 3.605 5.612-1.524 51.655-47.124 54.133-53.612 2.408-6.304 1.454-12.726-2.951-19.877-14.951-24.267-2.576-54.801 24.535-60.539 9.452-2.001 15.64-7.098 17.723-14.598 1.424-5.129 1.401-65.509-.028-70.654-1.911-6.885-7.248-11.402-16.576-14.031-14.023-3.952-23.239-11.353-28.814-23.138-6.465-13.664-5.31-23.27 4.973-41.361 3.047-5.36 3.266-11.868.594-17.593-2.867-6.141-48.434-50.891-53.456-52.496-6.054-1.935-12.491-.829-19.219 3.304-24.253 14.897-55.85 1.516-60.858-25.773-1.452-7.912-7.16-14.498-14.279-16.475-6-1.666-66.804-1.319-71.652.409m22.875 95.22c-97.28 12.608-146.754 119.575-92.167 199.268 32.545 47.512 92.028 67.498 147.167 49.447 50.468-16.521 86.52-68.01 86.496-123.532-.032-73.979-68.59-134.633-141.496-125.183m1.747 16.414c-44.786 5.21-83.55 37.404-95.757 79.529-19.275 66.514 26.921 134.874 96.347 142.572 55.475 6.152 106.789-31.112 119.758-86.967 17.217-74.145-44.914-143.908-120.348-135.134m-24.581 51.971c-11.45 3.939-19.616 10.991-24.654 21.29-4.605 9.414-5.012 13.9-5.012 55.217v38.307l2.25 2.501c3.241 3.603 8.486 3.875 11.75.611 1.891-1.891 2-3.333 2-26.5V264h55v23.865c0 27.303.48 29.135 7.638 29.135 9.127 0 9.366-1.1 9.342-42.899-.022-38.305-.688-45.718-4.922-54.781-9.079-19.432-32.818-29.324-53.392-22.246M308 197c-1.953 1.953-2 3.333-2 59s.047 57.047 2 59c3.058 3.058 9.283 2.727 11.927-.635 3.254-4.136 3.254-112.594 0-116.73-2.644-3.362-8.869-3.693-11.927-.635m-82.006 14.934c-11.773 3.581-18.527 13.204-19.67 28.024l-.62 8.042H261l-.022-7.75c-.056-19.895-17.16-33.738-34.984-28.316" fill-rule="evenodd"/></svg>